<svg width="28" height="28" viewBox="0 0 28 28" fill="none" xmlns="http://www.w3.org/2000/svg">
<path d="M14.0254 0.10498C6.30869 0.10498 0.0512695 6.46792 0.0512695 14.3176C0.0512695 20.5973 4.05527 25.9249 9.6076 27.8042C10.306 27.9358 10.5624 27.4959 10.5624 27.1205C10.5624 26.7816 10.5494 25.662 10.5434 24.4743C6.6558 25.3341 5.83547 22.7974 5.83547 22.7974C5.1998 21.1546 4.2839 20.7178 4.2839 20.7178C3.01603 19.8356 4.37947 19.8538 4.37947 19.8538C5.78271 19.9538 6.52158 21.3184 6.52158 21.3184C7.76793 23.4912 9.79064 22.8631 10.5881 22.4999C10.7135 21.5815 11.0756 20.9541 11.4753 20.5994C8.37143 20.24 5.10862 19.0213 5.10862 13.5753C5.10862 12.0236 5.65451 10.7557 6.54843 9.76037C6.40334 9.40215 5.92502 7.95681 6.6838 5.99909C6.6838 5.99909 7.85725 5.6171 10.5277 7.45596C11.6423 7.14105 12.8378 6.98313 14.0254 6.97771C15.2129 6.98313 16.4093 7.14105 17.526 7.45596C20.1932 5.6171 21.3651 5.99909 21.3651 5.99909C22.1257 7.95681 21.6471 9.40215 21.502 9.76037C22.398 10.7557 22.9402 12.0236 22.9402 13.5753C22.9402 19.0342 19.6712 20.2362 16.5595 20.5881C17.0607 21.0291 17.5073 21.8941 17.5073 23.2201C17.5073 25.1216 17.4911 26.6521 17.4911 27.1205C17.4911 27.4987 17.7426 27.9419 18.451 27.8023C24.0003 25.9209 27.9992 20.5951 27.9992 14.3176C27.9992 6.46792 21.7427 0.10498 14.0254 0.10498" fill="#9AF3FF"/>
</svg>
